<?xml version="1.0" standalone="no"?>
<!DOCTYPE svg PUBLIC "-//W3C//DTD SVG 20010904//EN"
 "http://www.w3.org/TR/2001/REC-SVG-20010904/DTD/svg10.dtd">
<svg version="1.0" xmlns="http://www.w3.org/2000/svg"
 width="507.000000pt" height="507.000000pt" viewBox="0 0 507.000000 507.000000"
 preserveAspectRatio="xMidYMid meet">
<metadata>
Created by potrace 1.14, written by Peter Selinger 2001-2017
</metadata>
<g transform="translate(0.000000,507.000000) scale(0.100000,-0.100000)"
fill="#000000" stroke="none">
<path d="M665 2535 l0 -2535 150 0 150 0 0 2535 0 2535 -150 0 -150 0 0 -2535z"/>
<path d="M2454 4921 l1 -151 50 -1 c65 0 158 -7 215 -14 93 -12 118 -17 228
-41 476 -105 940 -395 1247 -779 119 -148 250 -365 320 -530 69 -164 145 -452
162 -620 15 -154 9 -480 -12 -585 -2 -13 -7 -42 -10 -65 -34 -234 -178 -591
-334 -825 -174 -263 -400 -488 -646 -645 -33 -21 -71 -45 -85 -55 -23 -16
-261 -133 -305 -151 -62 -25 -176 -61 -257 -83 -135 -36 -176 -43 -338 -62
-101 -11 -111 -12 -175 -13 l-60 -1 0 -151 0 -151 130 6 c71 3 139 8 150 10
11 2 47 7 80 10 94 11 317 64 439 105 386 130 701 326 991 616 367 366 598
798 700 1310 34 171 36 196 40 440 5 331 -29 557 -126 850 -17 50 -34 99 -39
110 -5 11 -31 71 -59 133 -27 62 -63 135 -80 162 -17 28 -31 53 -31 55 0 3
-26 45 -57 93 -32 48 -60 91 -62 96 -2 5 -10 16 -17 25 -7 9 -43 54 -81 101
-263 330 -638 610 -1023 765 -155 62 -376 127 -479 141 -19 3 -37 6 -40 8 -3
3 -38 7 -76 11 -39 4 -73 9 -77 11 -3 2 -69 7 -145 10 l-139 7 0 -152z"/>
<path d="M1859 4745 c0 -43 -1 -4684 0 -4717 l1 -28 149 0 148 0 0 2385 c0
1312 -3 2385 -6 2386 -3 0 -70 1 -149 2 l-142 2 -1 -30z"/>
<path d="M1279 4472 c-15 -3 -16 -198 -16 -2237 l0 -2235 147 0 c110 0 149 3
152 13 3 10 2 4416 -1 4452 -1 9 -240 15 -282 7z"/>
<path d="M2459 4476 c-5 -3 -4 -296 0 -297 3 -1 24 -3 46 -4 245 -12 466 -69
680 -176 162 -80 288 -172 425 -309 137 -137 228 -262 309 -425 118 -236 172
-459 173 -716 1 -254 -47 -476 -153 -707 -22 -47 -38 -86 -37 -87 9 -7 256
-135 260 -135 11 0 102 209 138 318 104 317 121 640 54 997 -9 51 -42 166 -67
240 -130 372 -385 711 -711 943 -305 217 -662 337 -1063 356 -29 2 -54 2 -54
2z"/>
<path d="M2459 3878 c-1 -2 -3 -69 -4 -150 l-2 -148 26 -1 c234 -9 447 -89
633 -238 161 -128 286 -316 342 -516 36 -126 44 -192 40 -325 -8 -296 -153
-588 -387 -777 l-38 -30 83 -116 c46 -64 89 -116 97 -116 17 -1 102 70 177
148 193 201 325 475 362 756 9 67 9 265 0 340 -19 153 -57 275 -133 430 -208
421 -640 710 -1108 740 -48 3 -88 4 -88 3z"/>
<path d="M2454 3134 c1 -141 2 -149 21 -151 186 -26 309 -110 383 -263 35 -72
36 -79 37 -183 0 -99 2 -108 20 -113 11 -2 74 -17 140 -33 66 -15 123 -26 127
-22 20 19 25 192 8 295 -32 200 -175 409 -353 515 -84 49 -214 91 -305 98
l-78 5 0 -148z"/>
<path d="M70 1194 l0 -1194 150 0 150 0 0 1193 0 1193 -150 1 -150 1 0 -1194z"/>
</g>
</svg>
